<?xml version="1.0" encoding="utf-8"?>
<!-- Generator: Adobe Illustrator 27.5.0, SVG Export Plug-In . SVG Version: 6.00 Build 0)  -->
<svg version="1.1" xmlns="http://www.w3.org/2000/svg" xmlns:xlink="http://www.w3.org/1999/xlink" x="0px" y="0px"
	 viewBox="0 0 724.64 407.86" style="enable-background:new 0 0 724.64 407.86;" xml:space="preserve">
<style type="text/css">
	.st0{clip-path:url(#SVGID_00000159439234201924672690000015060833301034229900_);fill:#FFFFFF;}
	.st1{clip-path:url(#SVGID_00000159439234201924672690000015060833301034229900_);fill:none;stroke:#75A250;stroke-width:1.4605;}
	.st2{opacity:0.45;clip-path:url(#SVGID_00000159439234201924672690000015060833301034229900_);fill:#75A250;}
	.st3{clip-path:url(#SVGID_00000159439234201924672690000015060833301034229900_);fill:none;stroke:#75A250;stroke-width:0.9737;}
	
		.st4{clip-path:url(#SVGID_00000159439234201924672690000015060833301034229900_);fill-rule:evenodd;clip-rule:evenodd;fill:#75A250;}
	.st5{clip-path:url(#SVGID_00000122705827631775488050000005825967629578708156_);}
	.st6{clip-path:url(#SVGID_00000074423523284904741400000004730157542386780556_);fill:#75A250;}
	.st7{clip-path:url(#SVGID_00000088824449854185304940000015413570823215388841_);fill:#FFFFFF;}
	.st8{clip-path:url(#SVGID_00000088824449854185304940000015413570823215388841_);fill:none;stroke:#75A250;stroke-width:1.4605;}
	
		.st9{clip-path:url(#SVGID_00000088824449854185304940000015413570823215388841_);fill-rule:evenodd;clip-rule:evenodd;fill:#75A250;}
	.st10{clip-path:url(#SVGID_00000086658833813908083260000000595259083292369301_);fill:#FFFFFF;}
	.st11{clip-path:url(#SVGID_00000086658833813908083260000000595259083292369301_);fill:none;stroke:#7A9D75;stroke-width:0.9737;}
	.st12{clip-path:url(#SVGID_00000086658833813908083260000000595259083292369301_);fill:#7A9D75;}
	.st13{opacity:0.45;clip-path:url(#SVGID_00000086658833813908083260000000595259083292369301_);fill:#7A9D75;}
	
		.st14{clip-path:url(#SVGID_00000151504564597274067930000008985106170820663941_);fill-rule:evenodd;clip-rule:evenodd;fill:#579441;}
	.st15{clip-path:url(#SVGID_00000168112416498709477430000015142709687745401784_);}
	.st16{clip-path:url(#SVGID_00000101065899332127081760000016259988043026951826_);}
	.st17{clip-path:url(#SVGID_00000028321853561598284860000006680012104963124108_);}
	.st18{clip-path:url(#SVGID_00000173124707016079128930000010318842195739254913_);}
	.st19{clip-path:url(#SVGID_00000016787474570345952860000008094310917128788910_);}
	.st20{fill-rule:evenodd;clip-rule:evenodd;fill:#FFFFFF;}
	.st21{clip-path:url(#SVGID_00000045608273224094247590000001650399423354221733_);}
	.st22{fill:#228140;}
	.st23{fill:#8AC340;}
</style>
<g id="Guides">
</g>
<g id="Artwork">
</g>
<g id="Tshirt_Thumbnail">
	<g>
		<g>
			<path class="st22" d="M94.1,202.62c0,0.19-0.1,0.29-0.3,0.29c-0.32,0-1.49-0.06-3.53-0.18c-0.32-0.02-0.59,0.24-0.59,0.58
				c-0.05,2.1-0.07,3.59-0.07,4.46c0,1.13,0.04,2.83,0.13,5.1c0.09,2.27,0.13,3.97,0.13,5.1c0,0.18-0.04,0.3-0.12,0.34
				c-0.03,0.02-0.16,0.04-0.38,0.07c-0.55,0.08-1.35,0.11-2.4,0.11c-1.17,0-2-0.04-2.47-0.11c-0.25-0.05-0.38-0.2-0.38-0.45
				c0-1.13,0.05-2.83,0.14-5.09c0.09-2.26,0.14-3.96,0.14-5.09c0-0.68-0.03-2.14-0.09-4.37c-0.01-0.34-0.29-0.6-0.61-0.57
				c-1.55,0.15-2.8,0.23-3.76,0.23c-0.15,0-0.22-0.05-0.22-0.14c0-0.12,0.06-0.49,0.19-1.11c0.14-0.64,0.22-1.04,0.24-1.2
				c0-0.02,0-0.03,0-0.05c0.03-0.44,0.06-0.88,0.09-1.33c0.06-0.72,0.17-1.08,0.33-1.08c0.02,0,0.08,0,0.19,0.01
				c1.48,0.2,3.66,0.3,6.54,0.3c0.82,0,2.33-0.09,4.53-0.27c1.18-0.1,1.78-0.14,1.79-0.14c0.18,0,0.29,0.01,0.31,0.04
				c0.03,0.02,0.05,0.12,0.05,0.28c0,0.26-0.01,0.62-0.03,1.08c-0.02,0.51-0.03,0.87-0.03,1.08c0,0.24,0.03,0.59,0.09,1.06
				C94.07,202.04,94.1,202.39,94.1,202.62z"/>
			<path class="st22" d="M113.89,217.94c0,0.2-0.04,0.33-0.12,0.37c-0.04,0.03-0.16,0.05-0.38,0.07c-0.56,0.06-1.34,0.09-2.35,0.09
				c-1.43,0-2.27-0.03-2.52-0.09c-0.25-0.06-0.38-0.19-0.38-0.39c0-0.76,0.03-1.89,0.1-3.41c0.07-1.52,0.1-2.66,0.1-3.41
				c0-0.37-0.1-0.59-0.3-0.65c-0.31-0.08-1.41-0.11-3.31-0.11c-1.9,0-3.01,0.04-3.33,0.11c-0.2,0.05-0.3,0.26-0.3,0.65
				c0,0.75,0.02,1.87,0.07,3.36c0.05,1.49,0.07,2.61,0.07,3.36c0,0.29-0.12,0.46-0.37,0.5c-0.29,0.06-1.15,0.09-2.57,0.09
				c-1.23,0-2.01-0.03-2.35-0.09c-0.26-0.05-0.4-0.2-0.4-0.45c0-1.03,0.05-2.6,0.14-4.68c0.1-2.09,0.14-3.65,0.14-4.7
				c0-1.11-0.05-2.78-0.14-5.01c-0.09-2.23-0.14-3.9-0.14-5.01c0-0.21,0.1-0.32,0.29-0.32c0.28,0,0.71,0.01,1.28,0.04
				c0.57,0.03,0.99,0.04,1.28,0.04c0.29,0,0.73-0.01,1.32-0.04s1.03-0.04,1.32-0.04c0.15,0,0.23,0.09,0.23,0.26
				c0,0.72-0.05,1.79-0.15,3.23c-0.1,1.43-0.15,2.51-0.15,3.23c0,0.34,0.09,0.53,0.26,0.59c0.24,0.08,1.4,0.12,3.5,0.12
				c1.95,0,3.08-0.04,3.39-0.12c0.22-0.06,0.33-0.25,0.33-0.59c0-0.69-0.03-1.73-0.1-3.13c-0.06-1.39-0.1-2.44-0.1-3.14
				c0-0.3,0.11-0.45,0.34-0.45c0.26,0,0.67,0.01,1.21,0.04c0.54,0.03,0.95,0.04,1.22,0.04c0.26,0,0.67-0.01,1.21-0.04
				c0.54-0.03,0.95-0.04,1.22-0.04c0.26,0,0.4,0.11,0.4,0.34c0,1.1-0.04,2.76-0.13,4.99c-0.09,2.22-0.13,3.89-0.13,5
				c0,1.04,0.05,2.61,0.14,4.7C113.84,215.34,113.89,216.9,113.89,217.94z"/>
			<path class="st22" d="M132.68,218.24c0,0.07-0.09,0.11-0.27,0.14c-0.35,0.06-1.22,0.09-2.61,0.09c-1.19,0-2-0.03-2.43-0.09
				c-0.2-0.03-0.31-0.05-0.34-0.07c-0.05-0.03-0.12-0.12-0.19-0.29c-0.14-0.37-0.34-0.93-0.6-1.67c-0.35-0.96-0.91-2.37-1.67-4.24
				c-0.16-0.37-0.54-0.58-1.13-0.62c0.27,0.02-0.2,0.03-1.41,0.03c-0.14,0-0.21,0.24-0.21,0.73c0,0.65,0.06,1.62,0.17,2.92
				c0.11,1.29,0.17,2.27,0.17,2.92c0,0.16-0.04,0.26-0.12,0.29c-0.13,0.01-0.25,0.02-0.38,0.03c-0.54,0.04-1.38,0.06-2.51,0.06
				c-1.3,0-2.09-0.03-2.35-0.09c-0.26-0.06-0.4-0.21-0.4-0.45c0-1.05,0.05-2.64,0.14-4.77c0.1-2.13,0.14-3.72,0.14-4.78
				c0-4.05-0.09-7.21-0.26-9.48l-0.01-0.2c-0.01-0.16,0.13-0.27,0.43-0.33c0.3-0.06,1.69-0.11,4.17-0.17
				c1.68-0.04,3.03-0.06,4.03-0.06c2.08,0,3.77,0.49,5.08,1.48c1.48,1.11,2.23,2.72,2.23,4.81c0,1.4-0.19,2.51-0.57,3.35
				c-0.38,0.83-1.09,1.64-2.12,2.43c0,0,0,0-0.01,0c-0.22,0.16-0.28,0.47-0.17,0.73c0.23,0.49,0.74,1.6,1.53,3.31
				C132.12,216.66,132.68,217.99,132.68,218.24z M126.94,205.35c0-1.17-0.36-1.98-1.09-2.43c-0.56-0.34-1.45-0.52-2.65-0.52
				c-0.86,0-1.32,0.14-1.38,0.42c-0.05,0.33-0.08,1.26-0.08,2.82c0,0.22,0,0.55,0.01,0.98c0.01,0.43,0.01,0.75,0.01,0.96
				c0,0.05,0.15,0.1,0.44,0.14c0.56,0.09,1.14,0.13,1.75,0.13C125.94,207.85,126.94,207.02,126.94,205.35z"/>
			<path class="st22" d="M150.27,218.44c-1.23,0-1.93-0.02-2.1-0.06c-0.17-0.04-0.32-0.18-0.44-0.42c-1.04-2.16-2.08-4.32-3.13-6.48
				c-1.65-3.48-2.47-5.45-2.47-5.91c0-0.76,0.03-1.89,0.08-3.41c0.05-1.52,0.07-2.66,0.07-3.41c0-0.35,0.09-0.53,0.27-0.53
				c0.55,0,1.37,0.02,2.49,0.07c1.11,0.05,1.94,0.07,2.5,0.07c0.23,0,0.34,0.1,0.34,0.3c0,0.78-0.05,1.94-0.16,3.5
				c-0.1,1.56-0.16,2.72-0.16,3.5c0,0.54,0.76,2.34,2.28,5.39c0.21,0.42,0.78,0.42,0.99,0.01c0.37-0.74,0.77-1.58,1.21-2.52
				c0.86-1.86,1.28-3,1.28-3.42c0-0.7-0.01-1.75-0.03-3.15c-0.02-1.4-0.03-2.45-0.03-3.15c0-0.26,0.04-0.4,0.12-0.43h0.44
				c0.5,0,1.26-0.03,2.27-0.08c1.02-0.05,1.77-0.08,2.27-0.08c0.27,0,0.41,0.11,0.41,0.34c0,0.74-0.01,1.85-0.03,3.34
				c-0.02,1.49-0.03,2.61-0.03,3.36c0,0.59-0.9,2.78-2.69,6.55c-0.71,1.36-1.73,3.41-3.07,6.15c-0.09,0.21-0.15,0.33-0.18,0.35
				c-0.03,0.02-0.15,0.05-0.35,0.06C151.96,218.42,151.24,218.44,150.27,218.44z"/>
			<path class="st22" d="M174.79,213.91c0,0.41-0.08,1.17-0.23,2.27c-0.16,1.2-0.31,1.91-0.44,2.14c-0.11,0.18-0.26,0.27-0.45,0.27
				c-0.08,0-0.22-0.01-0.41-0.04c-0.66-0.1-2.6-0.14-5.82-0.14c-0.7,0-1.74,0-3.13-0.01c-1.38-0.01-2.42-0.01-3.11-0.01
				c-0.3,0-0.45-0.14-0.45-0.42c0-1.07,0.06-2.68,0.17-4.84c0.11-2.15,0.17-3.76,0.17-4.84c0-1.09-0.05-3.13-0.16-6.11
				c-0.03-0.77-0.08-1.91-0.15-3.43l-0.01-0.2c-0.02-0.22,0.1-0.33,0.34-0.33c0.67,0,1.69,0.02,3.04,0.06
				c1.35,0.04,2.36,0.06,3.04,0.06c0.66,0,1.67-0.02,3-0.06c1.34-0.04,2.34-0.06,3-0.06c0.47,0,0.75,0.19,0.82,0.56
				c0.05,0.22,0.12,0.89,0.21,2c0.1,1.12,0.14,1.79,0.14,2.03c0,0.2-0.09,0.3-0.27,0.3c-0.05,0-0.15,0-0.29-0.01
				c-2.42-0.21-4.6-0.32-6.53-0.32c-0.48,0-0.78,0.12-0.89,0.36c-0.05,0.11-0.07,0.48-0.07,1.11c0,0.65,0.09,1.08,0.27,1.29
				c0.15,0.18,0.45,0.27,0.89,0.27c0.09,0,0.27-0.01,0.53-0.02c0.26-0.01,0.48-0.02,0.66-0.02c1.15,0,2.31-0.03,3.48-0.1
				c0.1-0.01,0.35-0.03,0.75-0.07c0.31-0.04,0.56-0.06,0.74-0.06c0.22,0,0.33,0.11,0.33,0.33c0-0.2-0.08,0.53-0.25,2.2
				c-0.07,0.77-0.11,1.53-0.11,2.3c0,0.19-0.13,0.29-0.4,0.29l-1.23-0.14c-0.52-0.06-1.7-0.09-3.55-0.09H167
				c-0.37,0-0.59,0.1-0.66,0.29c-0.01,0.05-0.01,0.34-0.01,0.89c0,0.73,0.05,1.2,0.14,1.41c0.15,0.36,0.73,0.58,1.73,0.65
				c0.01,0,0.03,0,0.04,0c0.12,0,0.78,0,1.98,0c0.48,0,1.2-0.05,2.15-0.14c0.95-0.09,1.66-0.14,2.14-0.14
				C174.69,213.4,174.79,213.57,174.79,213.91z"/>
			<path class="st22" d="M192.97,205.91c0,2.32-0.58,4.2-1.73,5.63c-1.24,1.52-2.95,2.28-5.12,2.28c-0.36,0-0.91-0.02-1.65-0.06
				c-0.73-0.04-1.28-0.06-1.65-0.06c-0.39,0-0.59,0.18-0.59,0.53c0,0.44,0.04,1.1,0.12,1.97c0.08,0.87,0.12,1.52,0.12,1.95
				c0,0.22-0.1,0.33-0.29,0.33c-0.56,0-1.39-0.02-2.5-0.05c-0.79-0.02-1.44-0.04-1.95-0.05c-0.52-0.01-0.94-0.46-0.94-1.01
				c0-1.03,0.02-2.44,0.05-4.21c0.03-2.13,0.05-3.73,0.05-4.79c0-3.01-0.12-6.17-0.37-9.48l-0.01-0.2
				c-0.02-0.18,0.12-0.29,0.41-0.33c0.71-0.1,2.28-0.14,4.7-0.14c1.43,0,2.8,0.02,4.11,0.06c2.16,0.07,3.9,0.78,5.22,2.14
				C192.3,201.82,192.97,203.65,192.97,205.91z M187.52,206.14c0-2.23-1.03-3.35-3.1-3.35c-0.88,0-1.5,0.03-1.88,0.09
				c-0.26,0.04-0.45,0.26-0.47,0.54c-0.03,0.5-0.05,1.48-0.05,2.95c0,0.3,0.01,0.74,0.03,1.31c0.02,0.58,0.03,1.02,0.03,1.31
				c0,0.19,0.82,0.29,2.46,0.29C186.53,209.29,187.52,208.24,187.52,206.14z"/>
			<path class="st22" d="M213.81,208.32c0,2.99-0.91,5.49-2.72,7.51c-1.85,2.05-4.19,3.07-7.02,3.07c-2.81,0-5.15-1.03-7.01-3.1
				c-1.82-2.02-2.73-4.52-2.73-7.49c0-2.98,1.8-6.06,2.81-8.64c1.9-4.9,2.91-11.54,3.12-16.24c0.09-2.11,9.21,13.18,10.51,15.94
				C211.96,201.9,213.81,205.36,213.81,208.32z M208.64,208.3c0-1.44-0.6-2.42-1-3.68c-0.51-1.59-4.67-11.75-4.84-10.84
				c-0.39,2.11-1.76,9.02-2.45,10.84c-0.49,1.29-0.84,2.34-0.84,3.71c0,1.47,0.41,2.69,1.22,3.66c0.86,1.03,1.97,1.54,3.35,1.54
				c1.28,0,2.38-0.54,3.28-1.62C208.21,210.87,208.64,209.67,208.64,208.3z"/>
			<path class="st22" d="M229.15,202.62c0,0.19-0.1,0.29-0.3,0.29c-0.32,0-1.49-0.06-3.53-0.18c-0.32-0.02-0.59,0.24-0.59,0.58
				c-0.05,2.1-0.07,3.59-0.07,4.46c0,1.13,0.04,2.83,0.13,5.1c0.09,2.27,0.13,3.97,0.13,5.1c0,0.18-0.04,0.3-0.12,0.34
				c-0.03,0.02-0.15,0.04-0.38,0.07c-0.55,0.08-1.35,0.11-2.4,0.11c-1.17,0-2-0.04-2.47-0.11c-0.26-0.05-0.38-0.2-0.38-0.45
				c0-1.13,0.05-2.83,0.14-5.09c0.09-2.26,0.14-3.96,0.14-5.09c0-0.68-0.03-2.14-0.09-4.37c-0.01-0.34-0.29-0.6-0.61-0.57
				c-1.55,0.15-2.8,0.23-3.76,0.23c-0.15,0-0.22-0.05-0.22-0.14c0-0.12,0.06-0.49,0.19-1.11c0.14-0.64,0.22-1.04,0.24-1.2
				c0-0.02,0-0.03,0-0.05c0.03-0.44,0.06-0.88,0.09-1.33c0.06-0.72,0.17-1.08,0.33-1.08c0.02,0,0.08,0,0.19,0.01
				c1.47,0.2,3.66,0.3,6.54,0.3c0.82,0,2.33-0.09,4.53-0.27c1.18-0.1,1.78-0.14,1.79-0.14c0.18,0,0.29,0.01,0.31,0.04
				c0.03,0.02,0.05,0.12,0.05,0.28c0,0.26-0.01,0.62-0.03,1.08c-0.02,0.51-0.03,0.87-0.03,1.08c0,0.24,0.03,0.59,0.09,1.06
				C229.12,202.04,229.15,202.39,229.15,202.62z"/>
		</g>
		<path class="st23" d="M134.55,213.85c0,0,14.56-14.15-4.42-27.96s-6.48-25.46-6.48-25.46s-10.3,17.76,9.07,36.8
			C139.99,204.39,134.55,213.85,134.55,213.85z"/>
	</g>
</g>
<g id="Text">
</g>
</svg>
